<svg xmlns="http://www.w3.org/2000/svg">
	<symbol id="logo" viewBox="0 0 79 75">
		<rect style="fill: #fff; opacity: 0.5" x="12" y="8" width="67" height="67"/>
		<rect style="fill: #11749e" width="67" height="67"/>
		<text style="text-anchor: middle; font-size: 38px; fill: #f5f5f5; font-family: 'Open Sans'; font-weight: 700; text-transform: uppercase;" transform="translate(33.136 43.965) scale(0.794)">CS</text>
	</symbol>

  <symbol id="facebook" viewBox="0 0 96.227 96.227">
    	<path d="M73.099,15.973l-9.058,0.004c-7.102,0-8.477,3.375-8.477,8.328v10.921h16.938l-0.006,17.106H55.564v43.895H37.897V52.332
		h-14.77V35.226h14.77V22.612C37.897,7.972,46.84,0,59.9,0L73.1,0.021L73.099,15.973L73.099,15.973z"/>
  </symbol>

  <symbol id="twitter" viewBox="0 0 97.637 97.637">
    <path d="M97.523,18.526c-0.14-0.165-0.371-0.221-0.568-0.131c-2.919,1.295-5.99,2.226-9.153,2.776
		  c3.358-2.526,5.86-6.024,7.143-10.035c0.062-0.192-0.002-0.402-0.159-0.527c-0.158-0.125-0.377-0.141-0.55-0.038
		  c-3.782,2.243-7.878,3.824-12.18,4.701c-3.812-3.956-9.135-6.219-14.644-6.219c-11.204,0-20.318,9.114-20.318,20.317
		  c0,1.355,0.131,2.697,0.391,4c-15.518-0.958-30.028-8.408-39.894-20.509c-0.101-0.124-0.254-0.193-0.414-0.177
		  c-0.159,0.012-0.301,0.102-0.381,0.239c-1.8,3.088-2.751,6.621-2.751,10.215c0,6.229,2.83,12.053,7.649,15.896
		  c-2.481-0.298-4.904-1.079-7.089-2.292c-0.147-0.083-0.33-0.082-0.477,0.003c-0.147,0.084-0.24,0.24-0.244,0.41l-0.002,0.26
		  c0,8.946,5.895,16.801,14.282,19.409c-2.209,0.356-4.501,0.332-6.754-0.098c-0.166-0.031-0.34,0.026-0.454,0.154
		  c-0.113,0.128-0.151,0.307-0.099,0.469c2.515,7.85,9.503,13.355,17.637,14.041c-6.785,4.971-14.805,7.59-23.279,7.59
		  c-1.561,0-3.133-0.093-4.673-0.274c-0.22-0.025-0.438,0.106-0.514,0.317c-0.076,0.213,0.005,0.451,0.195,0.572
		  c9.17,5.881,19.773,8.988,30.664,8.988c35.625,0,56.913-28.938,56.913-56.914c0-0.779-0.015-1.554-0.046-2.327
		  c3.843-2.811,7.142-6.252,9.802-10.235C97.675,18.929,97.662,18.692,97.523,18.526z"/>
  </symbol>

    <symbol id="in" viewBox="0 0 93.06 93.06">
    		<path d="M11.185,0.08C5.004,0.08,0.001,5.092,0,11.259c0,6.173,5.003,11.184,11.186,11.184c6.166,0,11.176-5.011,11.176-11.184
			    C22.362,5.091,17.351,0.08,11.185,0.08z"/>
		  <rect x="1.538" y="30.926" width="19.287" height="62.054"/>
		  <path d="M69.925,29.383c-9.382,0-15.673,5.144-18.248,10.022h-0.258v-8.479H32.921H32.92v62.053h19.27V62.281
			  c0-8.093,1.541-15.932,11.575-15.932c9.89,0,10.022,9.256,10.022,16.451v30.178H93.06V58.942
			  C93.06,42.235,89.455,29.383,69.925,29.383z"/>
  </symbol>

    <symbol id="skype" viewBox="0 0 24 24">
    	<path d="m23.309 14.547c1.738-7.81-5.104-14.905-13.139-13.543-4.362-2.707-10.17.352-10.17 5.542 0 1.207.333 2.337.912 3.311-1.615 7.828 5.283 14.821 13.311 13.366 5.675 3.001 11.946-2.984 9.086-8.676zm-7.638 4.71c-2.108.867-5.577.872-7.676-.227-2.993-1.596-3.525-5.189-.943-5.189 1.946 0 1.33 2.269 3.295 3.194.902.417 2.841.46 3.968-.3 1.113-.745 1.011-1.917.406-2.477-1.603-1.48-6.19-.892-8.287-3.483-.911-1.124-1.083-3.107.037-4.545 1.952-2.512 7.68-2.665 10.143-.768 2.274 1.76 1.66 4.096-.175 4.096-2.207 0-1.047-2.888-4.61-2.888-2.583 0-3.599 1.837-1.78 2.731 2.466 1.225 8.75.816 8.75 5.603-.005 1.992-1.226 3.477-3.128 4.253z"/>
  </symbol>

	<symbol id="pen" viewBox="0 -1 401.52289 401">
	  <path d="m370.589844 250.972656c-5.523438 0-10 4.476563-10 10v88.789063c-.019532 16.5625-13.4375 29.984375-30 30h-280.589844c-16.5625-.015625-29.980469-13.4375-30-30v-260.589844c.019531-16.558594 13.4375-29.980469 30-30h88.789062c5.523438 0 10-4.476563 10-10 0-5.519531-4.476562-10-10-10h-88.789062c-27.601562.03125-49.96875 22.398437-50 50v260.59375c.03125 27.601563 22.398438 49.96875 50 50h280.589844c27.601562-.03125 49.96875-22.398437 50-50v-88.792969c0-5.523437-4.476563-10-10-10zm0 0"/><path d="m376.628906 13.441406c-17.574218-17.574218-46.066406-17.574218-63.640625 0l-178.40625 178.40625c-1.222656 1.222656-2.105469 2.738282-2.566406 4.402344l-23.460937 84.699219c-.964844 3.472656.015624 7.191406 2.5625 9.742187 2.550781 2.546875 6.269531 3.527344 9.742187 2.566406l84.699219-23.464843c1.664062-.460938 3.179687-1.34375 4.402344-2.566407l178.402343-178.410156c17.546875-17.585937 17.546875-46.054687 0-63.640625zm-220.257812 184.90625 146.011718-146.015625 47.089844 47.089844-146.015625 146.015625zm-9.40625 18.875 37.621094 37.625-52.039063 14.417969zm227.257812-142.546875-10.605468 10.605469-47.09375-47.09375 10.609374-10.605469c9.761719-9.761719 25.589844-9.761719 35.351563 0l11.738281 11.734375c9.746094 9.773438 9.746094 25.589844 0 35.359375zm0 0"/>
	</symbol>

		<symbol id="search" viewBox="0 0 511.999 511.999">
					<path d="M508.874,478.708L360.142,329.976c28.21-34.827,45.191-79.103,45.191-127.309c0-111.75-90.917-202.667-202.667-202.667
			S0,90.917,0,202.667s90.917,202.667,202.667,202.667c48.206,0,92.482-16.982,127.309-45.191l148.732,148.732
			c4.167,4.165,10.919,4.165,15.086,0l15.081-15.082C513.04,489.627,513.04,482.873,508.874,478.708z M202.667,362.667
			c-88.229,0-160-71.771-160-160s71.771-160,160-160s160,71.771,160,160S290.896,362.667,202.667,362.667z"/>
	</symbol>

		<symbol id="comment" viewBox="0 0 511.072 511.072">
	  	<path d="m74.39 480.536h-36.213l25.607-25.607c13.807-13.807 22.429-31.765 24.747-51.246-36.029-23.644-62.375-54.751-76.478-90.425-14.093-35.647-15.864-74.888-5.121-113.482 12.89-46.309 43.123-88.518 85.128-118.853 45.646-32.963 102.47-50.387 164.33-50.387 77.927 0 143.611 22.389 189.948 64.745 41.744 38.159 64.734 89.63 64.734 144.933 0 26.868-5.471 53.011-16.26 77.703-11.165 25.551-27.514 48.302-48.593 67.619-46.399 42.523-112.042 65-189.83 65-28.877 0-59.01-3.855-85.913-10.929-25.465 26.123-59.972 40.929-96.086 40.929zm182-420c-124.039 0-200.15 73.973-220.557 147.285-19.284 69.28 9.143 134.743 76.043 175.115l7.475 4.511-.23 8.727c-.456 17.274-4.574 33.912-11.945 48.952 17.949-6.073 34.236-17.083 46.99-32.151l6.342-7.493 9.405 2.813c26.393 7.894 57.104 12.241 86.477 12.241 154.372 0 224.682-93.473 224.682-180.322 0-46.776-19.524-90.384-54.976-122.79-40.713-37.216-99.397-56.888-169.706-56.888z"/>
	</symbol>
</svg>